# xmcd
#
# Track frame offsets: 
#        150
#        13188
#        27169
#        41318
#        53125
#        63698
#        69587
#        79337
#        92641
#        108785
#        121536
#        135131
#        151106
#        159027
#        174679
#        189425
#        206512
#        216301
#        223741
#        240076
#
# Disc length: 3406 seconds
#
# Revision: 0
# Processed by: cddbd v1.5.2PL0 Copyright (c) Steve Scherf et al.
# Submitted via: ExactAudioCopyFreeDBPlugin 1.0
#
DISCID=fc0d4c14
DTITLE=Familie Sonntag - Unsere besten Weihnachtslieder
DYEAR=1900
DGENRE=
TTITLE0=In der Weihnachtsbäckerei
TTITLE1=Fröhliche Weihnacht überall
TTITLE2=Jungle Bells
TTITLE3=Schneeflöckchen Weissröckchen
TTITLE4=Ihr Kinderlein kommet
TTITLE5=Morgen kommt der Weihnachtsmann
TTITLE6=Lasst uns froh und munter sein
TTITLE7=Plätzchenduft liegt in der Luft
TTITLE8=Schau doch mal
TTITLE9=Kommet ihr Hirten
TTITLE10=Freut Euch Weichnachtskinder
TTITLE11=24 Türchen
TTITLE12=Josef, lieber Josef
TTITLE13=Ach, du lieber Weihnachtsmann
TTITLE14=Wintertraum in Afrika
TTITLE15=Wer hat nur den Weihnachtsmann gesehen?
TTITLE16=Oh Tannenbaum
TTITLE17=Morgen, Kinder, wird's was geben
TTITLE18=Süßer die Glocken nie klingen
TTITLE19=Wundersames Weihnachtsland
EXTD=
EXTT0=
EXTT1=
EXTT2=
EXTT3=
EXTT4=
EXTT5=
EXTT6=
EXTT7=
EXTT8=
EXTT9=
EXTT10=
EXTT11=
EXTT12=
EXTT13=
EXTT14=
EXTT15=
EXTT16=
EXTT17=
EXTT18=
EXTT19=
PLAYORDER=
